<svg xmlns="http://www.w3.org/2000/svg" width="1920" height="1080"><path d="M720,300L240,-180L240,300Z" fill="#1c5772" stroke="#1c5772" stroke-width="1.51"/><path d="M720,300L720,-180L240,-180Z" fill="#1c5773" stroke="#1c5773" stroke-width="1.51"/><path d="M240,-180L-240,-180L240,300Z" fill="#1f5b78" stroke="#1f5b78" stroke-width="1.51"/><path d="M-240,-180L-240,300L240,300Z" fill="#1e5b77" stroke="#1e5b77" stroke-width="1.51"/><path d="M720,-180L240,-660L240,-180Z" fill="#1f5c79" stroke="#1f5c79" stroke-width="1.51"/><path d="M240,-180L240,-660L-240,-180Z" fill="#205f7d" stroke="#205f7d" stroke-width="1.51"/><path d="M-240,300L240,780L240,300Z" fill="#1b5671" stroke="#1b5671" stroke-width="1.51"/><path d="M240,300L240,780L720,300Z" fill="#19536e" stroke="#19536e" stroke-width="1.51"/><path d="M720,-180L720,-660L240,-660Z" fill="#1f5d7a" stroke="#1f5d7a" stroke-width="1.51"/><path d="M240,780L720,780L720,300Z" fill="#174f6a" stroke="#174f6a" stroke-width="1.51"/><path d="M1200,300L1200,-180L720,300Z" fill="#19516b" stroke="#19516b" stroke-width="1.51"/><path d="M720,300L1200,-180L720,-180Z" fill="#1a5470" stroke="#1a5470" stroke-width="1.51"/><path d="M720,-180L1200,-180L720,-660Z" fill="#1c5874" stroke="#1c5874" stroke-width="1.51"/><path d="M720,780L1200,300L720,300Z" fill="#174f69" stroke="#174f69" stroke-width="1.51"/><path d="M240,-660L-240,-660L-240,-180Z" fill="#226381" stroke="#226381" stroke-width="1.51"/><path d="M-240,300L-240,780L240,780Z" fill="#1b5571" stroke="#1b5571" stroke-width="1.51"/><path d="M1200,-180L1200,-660L720,-660Z" fill="#1c5975" stroke="#1c5975" stroke-width="1.51"/><path d="M720,780L1200,780L1200,300Z" fill="#154b65" stroke="#154b65" stroke-width="1.51"/><path d="M-240,-660L-720,-180L-240,-180Z" fill="#236482" stroke="#236482" stroke-width="1.51"/><path d="M-240,-180L-720,-180L-240,300Z" fill="#21607e" stroke="#21607e" stroke-width="1.51"/><path d="M-240,300L-720,300L-240,780Z" fill="#1d5a77" stroke="#1d5a77" stroke-width="1.51"/><path d="M-720,-180L-720,300L-240,300Z" fill="#21607d" stroke="#21607d" stroke-width="1.51"/><path d="M240,780L240,1260L720,780Z" fill="#164d67" stroke="#164d67" stroke-width="1.51"/><path d="M720,780L720,1260L1200,780Z" fill="#144962" stroke="#144962" stroke-width="1.51"/><path d="M-240,780L240,1260L240,780Z" fill="#18506b" stroke="#18506b" stroke-width="1.51"/><path d="M240,1260L720,1260L720,780Z" fill="#144a64" stroke="#144a64" stroke-width="1.51"/><path d="M1200,-180L1680,-180L1200,-660Z" fill="#1a546f" stroke="#1a546f" stroke-width="1.51"/><path d="M1200,300L1680,-180L1200,-180Z" fill="#18506b" stroke="#18506b" stroke-width="1.51"/><path d="M1680,300L1680,-180L1200,300Z" fill="#164d66" stroke="#164d66" stroke-width="1.51"/><path d="M1200,780L1680,300L1200,300Z" fill="#154a64" stroke="#154a64" stroke-width="1.51"/><path d="M-240,-660L-720,-660L-720,-180Z" fill="#256786" stroke="#256786" stroke-width="1.51"/><path d="M-240,780L-240,1260L240,1260Z" fill="#18506a" stroke="#18506a" stroke-width="1.51"/><path d="M-720,300L-720,780L-240,780Z" fill="#1d5a76" stroke="#1d5a76" stroke-width="1.51"/><path d="M-720,780L-240,1260L-240,780Z" fill="#1a5570" stroke="#1a5570" stroke-width="1.51"/><path d="M1200,780L1680,780L1680,300Z" fill="#134760" stroke="#134760" stroke-width="1.51"/><path d="M720,1260L1200,1260L1200,780Z" fill="#12465e" stroke="#12465e" stroke-width="1.51"/><path d="M1680,-180L1680,-660L1200,-660Z" fill="#1a5570" stroke="#1a5570" stroke-width="1.51"/><path d="M1200,1260L1680,780L1200,780Z" fill="#11455d" stroke="#11455d" stroke-width="1.51"/><path d="M-720,780L-720,1260L-240,1260Z" fill="#1a5470" stroke="#1a5470" stroke-width="1.51"/><path d="M-240,1260L240,1740L240,1260Z" fill="#154b64" stroke="#154b64" stroke-width="1.51"/><path d="M240,1260L240,1740L720,1260Z" fill="#134861" stroke="#134861" stroke-width="1.51"/><path d="M720,1260L720,1740L1200,1260Z" fill="#11445c" stroke="#11445c" stroke-width="1.51"/><path d="M-240,1740L240,1740L-240,1260Z" fill="#154a63" stroke="#154a63" stroke-width="1.51"/><path d="M240,1740L720,1740L720,1260Z" fill="#11455d" stroke="#11455d" stroke-width="1.51"/><path d="M1200,1260L1680,1260L1680,780Z" fill="#104259" stroke="#104259" stroke-width="1.51"/><path d="M1200,1740L1680,1260L1200,1260Z" fill="#0e3f57" stroke="#0e3f57" stroke-width="1.51"/><path d="M1680,-180L2160,-180L1680,-660Z" fill="#17506a" stroke="#17506a" stroke-width="1.51"/><path d="M1680,300L2160,-180L1680,-180Z" fill="#164c66" stroke="#164c66" stroke-width="1.51"/><path d="M2160,300L2160,-180L1680,300Z" fill="#144962" stroke="#144962" stroke-width="1.51"/><path d="M2160,300L1680,300L1680,780Z" fill="#12465f" stroke="#12465f" stroke-width="1.51"/><path d="M2160,780L2160,300L1680,780Z" fill="#11435b" stroke="#11435b" stroke-width="1.51"/><path d="M-720,1260L-240,1740L-240,1260Z" fill="#174f69" stroke="#174f69" stroke-width="1.51"/><path d="M720,1740L1200,1740L1200,1260Z" fill="#0f4158" stroke="#0f4158" stroke-width="1.51"/><path d="M2160,-180L2160,-660L1680,-660Z" fill="#18506b" stroke="#18506b" stroke-width="1.51"/><path d="M1680,1260L2160,780L1680,780Z" fill="#0f4158" stroke="#0f4158" stroke-width="1.51"/><path d="M-720,1260L-720,1740L-240,1740Z" fill="#174f69" stroke="#174f69" stroke-width="1.51"/><path d="M1680,1260L2160,1260L2160,780Z" fill="#0e3d55" stroke="#0e3d55" stroke-width="1.51"/><path d="M1200,1740L1680,1740L1680,1260Z" fill="#0d3d53" stroke="#0d3d53" stroke-width="1.51"/><path d="M1680,1740L2160,1260L1680,1260Z" fill="#0c3b52" stroke="#0c3b52" stroke-width="1.51"/><path d="M2160,-180L2640,-180L2160,-660Z" fill="#154b65" stroke="#154b65" stroke-width="1.51"/><path d="M2160,300L2640,-180L2160,-180Z" fill="#134861" stroke="#134861" stroke-width="1.51"/><path d="M2640,300L2640,-180L2160,300Z" fill="#11455d" stroke="#11455d" stroke-width="1.51"/><path d="M2640,300L2160,300L2160,780Z" fill="#10425a" stroke="#10425a" stroke-width="1.51"/><path d="M2640,780L2640,300L2160,780Z" fill="#0e3f56" stroke="#0e3f56" stroke-width="1.51"/><path d="M2640,-180L2640,-660L2160,-660Z" fill="#154c66" stroke="#154c66" stroke-width="1.51"/><path d="M2160,1260L2640,780L2160,780Z" fill="#0d3d53" stroke="#0d3d53" stroke-width="1.51"/><path d="M2160,1260L2640,1260L2640,780Z" fill="#0b3950" stroke="#0b3950" stroke-width="1.51"/><path d="M1680,1740L2160,1740L2160,1260Z" fill="#0a384e" stroke="#0a384e" stroke-width="1.51"/><path d="M2160,1740L2640,1260L2160,1260Z" fill="#09374d" stroke="#09374d" stroke-width="1.51"/><path d="M2160,1740L2640,1740L2640,1260Z" fill="#073449" stroke="#073449" stroke-width="1.51"/></svg>