<svg xmlns="http://www.w3.org/2000/svg" width="1920" height="1080"><path d="M963,718L757,695L1032,1106Z" fill="#154a63" stroke="#154a63" stroke-width="1.51"/><path d="M757,695L853,1353L1032,1106Z" fill="#134861" stroke="#134861" stroke-width="1.51"/><path d="M757,695L326,867L853,1353Z" fill="#144b64" stroke="#144b64" stroke-width="1.51"/><path d="M757,695L649,347L326,867Z" fill="#174f69" stroke="#174f69" stroke-width="1.51"/><path d="M963,718L649,347L757,695Z" fill="#174e68" stroke="#174e68" stroke-width="1.51"/><path d="M326,867L262,1518L853,1353Z" fill="#144962" stroke="#144962" stroke-width="1.51"/><path d="M1032,1106L1649,813L963,718Z" fill="#134760" stroke="#134760" stroke-width="1.51"/><path d="M963,718L1043,66L649,347Z" fill="#18506a" stroke="#18506a" stroke-width="1.51"/><path d="M1796,1259L1649,813L1032,1106Z" fill="#10425a" stroke="#10425a" stroke-width="1.51"/><path d="M-195,986L41,1205L326,867Z" fill="#174f6a" stroke="#174f6a" stroke-width="1.51"/><path d="M326,867L41,1205L262,1518Z" fill="#164c66" stroke="#164c66" stroke-width="1.51"/><path d="M1533,82L1043,66L963,718Z" fill="#174e68" stroke="#174e68" stroke-width="1.51"/><path d="M853,1353L1319,1762L1032,1106Z" fill="#10425a" stroke="#10425a" stroke-width="1.51"/><path d="M645,1967L1319,1762L853,1353Z" fill="#0f4058" stroke="#0f4058" stroke-width="1.51"/><path d="M1319,1762L1796,1259L1032,1106Z" fill="#0f4057" stroke="#0f4057" stroke-width="1.51"/><path d="M649,347L138,195L326,867Z" fill="#19536e" stroke="#19536e" stroke-width="1.51"/><path d="M414,-10L138,195L649,347Z" fill="#1c5672" stroke="#1c5672" stroke-width="1.51"/><path d="M138,195L-195,986L326,867Z" fill="#19536e" stroke="#19536e" stroke-width="1.51"/><path d="M41,1205L-346,1434L262,1518Z" fill="#154c66" stroke="#154c66" stroke-width="1.51"/><path d="M1043,66L414,-10L649,347Z" fill="#1a5470" stroke="#1a5470" stroke-width="1.51"/><path d="M-162,1850L645,1967L262,1518Z" fill="#12455d" stroke="#12455d" stroke-width="1.51"/><path d="M262,1518L645,1967L853,1353Z" fill="#11445c" stroke="#11445c" stroke-width="1.51"/><path d="M1043,66L731,-385L414,-10Z" fill="#1c5773" stroke="#1c5773" stroke-width="1.51"/><path d="M1649,813L1533,82L963,718Z" fill="#144962" stroke="#144962" stroke-width="1.51"/><path d="M1929,26L1533,82L2058,175Z" fill="#154b64" stroke="#154b64" stroke-width="1.51"/><path d="M-195,986L-346,1434L41,1205Z" fill="#184f6a" stroke="#184f6a" stroke-width="1.51"/><path d="M1533,82L983,-340L1043,66Z" fill="#19526d" stroke="#19526d" stroke-width="1.51"/><path d="M983,-340L731,-385L1043,66Z" fill="#1c5672" stroke="#1c5672" stroke-width="1.51"/><path d="M-405,-344L-413,291L138,195Z" fill="#1f5d7b" stroke="#1f5d7b" stroke-width="1.51"/><path d="M-346,1434L-162,1850L262,1518Z" fill="#144a63" stroke="#144a63" stroke-width="1.51"/><path d="M-516,436L-529,892L-195,986Z" fill="#1b5773" stroke="#1b5773" stroke-width="1.51"/><path d="M-195,986L-529,892L-346,1434Z" fill="#19526d" stroke="#19526d" stroke-width="1.51"/><path d="M1319,1762L1872,1862L1796,1259Z" fill="#0b3b50" stroke="#0b3b50" stroke-width="1.51"/><path d="M645,1967L1872,1862L1319,1762Z" fill="#0c3b51" stroke="#0c3b51" stroke-width="1.51"/><path d="M1796,1259L2256,602L1649,813Z" fill="#104158" stroke="#104158" stroke-width="1.51"/><path d="M1872,1862L2180,1312L1796,1259Z" fill="#0b3a50" stroke="#0b3a50" stroke-width="1.51"/><path d="M138,195L-413,291L-195,986Z" fill="#1c5773" stroke="#1c5773" stroke-width="1.51"/><path d="M-405,-344L138,195L414,-10Z" fill="#1f5c79" stroke="#1f5c79" stroke-width="1.51"/><path d="M1533,82L1629,-591L983,-340Z" fill="#19536e" stroke="#19536e" stroke-width="1.51"/><path d="M2058,175L1533,82L1649,813Z" fill="#144961" stroke="#144961" stroke-width="1.51"/><path d="M-413,291L-516,436L-195,986Z" fill="#1d5975" stroke="#1d5975" stroke-width="1.51"/><path d="M2256,602L2058,175L1649,813Z" fill="#11445c" stroke="#11445c" stroke-width="1.51"/><path d="M2180,1312L2256,602L1796,1259Z" fill="#0d3d54" stroke="#0d3d54" stroke-width="1.51"/><path d="M-346,1434L-696,1779L-162,1850Z" fill="#154c66" stroke="#154c66" stroke-width="1.51"/><path d="M-529,892L-707,1078L-346,1434Z" fill="#19546f" stroke="#19546f" stroke-width="1.51"/><path d="M-516,436L-707,1078L-529,892Z" fill="#1c5874" stroke="#1c5874" stroke-width="1.51"/><path d="M2108,-787L1770,-358L2702,-224Z" fill="#174e68" stroke="#174e68" stroke-width="1.51"/><path d="M1929,26L1770,-358L1533,82Z" fill="#174e68" stroke="#174e68" stroke-width="1.51"/><path d="M983,-340L589,-865L731,-385Z" fill="#1e5c78" stroke="#1e5c78" stroke-width="1.51"/><path d="M2582,661L2451,508L2256,602Z" fill="#0f4057" stroke="#0f4057" stroke-width="1.51"/><path d="M2256,602L2451,508L2058,175Z" fill="#11435b" stroke="#11435b" stroke-width="1.51"/><path d="M2702,-224L1770,-358L1929,26Z" fill="#154b65" stroke="#154b65" stroke-width="1.51"/><path d="M2108,-787L1629,-591L1770,-358Z" fill="#19536d" stroke="#19536d" stroke-width="1.51"/><path d="M1770,-358L1629,-591L1533,82Z" fill="#18516c" stroke="#18516c" stroke-width="1.51"/><path d="M-707,1078L-696,1779L-346,1434Z" fill="#18506b" stroke="#18506b" stroke-width="1.51"/><path d="M-162,1850L-696,1779L645,1967Z" fill="#13475f" stroke="#13475f" stroke-width="1.51"/><path d="M1872,1862L2360,1811L2180,1312Z" fill="#08364b" stroke="#08364b" stroke-width="1.51"/><path d="M2180,1312L2582,661L2256,602Z" fill="#0d3e54" stroke="#0d3e54" stroke-width="1.51"/><path d="M2702,-224L1929,26L2058,175Z" fill="#144962" stroke="#144962" stroke-width="1.51"/><path d="M2581,1318L2582,661L2180,1312Z" fill="#0b3a50" stroke="#0b3a50" stroke-width="1.51"/><path d="M731,-385L150,-699L414,-10Z" fill="#1f5d79" stroke="#1f5d79" stroke-width="1.51"/><path d="M-413,291L-568,-270L-516,436Z" fill="#205e7c" stroke="#205e7c" stroke-width="1.51"/><path d="M589,-865L150,-699L731,-385Z" fill="#21607d" stroke="#21607d" stroke-width="1.51"/><path d="M-516,436L-568,-270L-707,1078Z" fill="#1f5c7a" stroke="#1f5c7a" stroke-width="1.51"/><path d="M150,-699L-405,-344L414,-10Z" fill="#215f7e" stroke="#215f7e" stroke-width="1.51"/><path d="M2360,1811L2581,1318L2180,1312Z" fill="#09364b" stroke="#09364b" stroke-width="1.51"/><path d="M1368,-820L589,-865L983,-340Z" fill="#1e5b78" stroke="#1e5b78" stroke-width="1.51"/><path d="M1629,-591L1368,-820L983,-340Z" fill="#1c5773" stroke="#1c5773" stroke-width="1.51"/><path d="M-405,-344L-568,-270L-413,291Z" fill="#226280" stroke="#226280" stroke-width="1.51"/><path d="M-623,-490L-568,-270L-405,-344Z" fill="#246584" stroke="#246584" stroke-width="1.51"/><path d="M2581,1318L2672,1633L2582,661Z" fill="#09374d" stroke="#09374d" stroke-width="1.51"/><path d="M2360,1811L2672,1633L2581,1318Z" fill="#073448" stroke="#073448" stroke-width="1.51"/><path d="M-568,-270L-623,-490L-707,1078Z" fill="#21607e" stroke="#21607e" stroke-width="1.51"/><path d="M-367,-878L-623,-490L-405,-344Z" fill="#256786" stroke="#256786" stroke-width="1.51"/><path d="M-367,-878L-405,-344L150,-699Z" fill="#246684" stroke="#246684" stroke-width="1.51"/><path d="M1629,-591L2108,-787L1368,-820Z" fill="#1b5671" stroke="#1b5671" stroke-width="1.51"/><path d="M1368,-820L2108,-787L589,-865Z" fill="#1d5a77" stroke="#1d5a77" stroke-width="1.51"/><path d="M2702,-224L2058,175L2451,508Z" fill="#12455d" stroke="#12455d" stroke-width="1.51"/><path d="M589,-865L-367,-878L150,-699Z" fill="#246583" stroke="#246583" stroke-width="1.51"/><path d="M2672,1633L2702,-224L2582,661Z" fill="#0d3d53" stroke="#0d3d53" stroke-width="1.51"/><path d="M2582,661L2702,-224L2451,508Z" fill="#0f4259" stroke="#0f4259" stroke-width="1.51"/><path d="M2702,-224L2570,-695L2108,-787Z" fill="#164d67" stroke="#164d67" stroke-width="1.51"/></svg>